<svg t="1609926827793" class="icon" viewBox="0 0 1024 1024" version="1.1" xmlns="http://www.w3.org/2000/svg" p-id="2507" width="1024" height="1024"><path d="M956.1344 1022.4128l42.6496 0c0-13.824-1.9456-27.0848-3.2256-40.6016 0.1536-1.4848 0.9216-2.7648 0.9216-4.2496l-0.4608-4.352c0-3.0208-1.1776-5.632-1.792-8.4992-21.6576-166.6048-134.6048-305.9712-290.2016-369.92 89.7536-58.6752 148.6848-157.184 148.6848-268.9536C852.7104 145.8688 700.0832 0 511.872 0 323.6608 0 171.0848 145.8688 171.0848 325.8368c0 111.8208 58.9824 210.3808 148.736 269.056-153.6 63.1808-265.984 199.7824-289.5872 363.6224-1.6384 4.7104-3.1232 9.5232-3.1232 14.6944l0.4608 4.352c0 1.3824 0.7168 2.56 0.8192 3.8912C27.2128 995.072 25.216 1008.4864 25.216 1022.4128l42.7008 0C70.7328 1022.9248 73.2416 1024 76.2112 1024s5.4784-1.0752 8.2944-1.5872l38.2464 0c0-201.2672 167.3728-364.8512 376.2176-371.4048 4.3008 0.1536 8.5504 0.6144 12.9024 0.6144 4.352 0 8.6016-0.4608 12.9536-0.6144 208.9472 6.5536 376.2176 170.0864 376.2688 371.4048l38.4512 0C942.3616 1022.9248 944.9216 1024 947.84 1024 950.7584 1024 953.3184 1022.9248 956.1344 1022.4128zM511.8208 558.592c-134.4512 0-243.456-104.192-243.456-232.6528 0-128.5632 109.0048-232.7552 243.456-232.7552 134.4 0 243.4048 104.192 243.4048 232.7552C755.2256 454.4 646.2208 558.592 511.8208 558.592z" p-id="2508"></path></svg>